<svg width="570" height="575" viewBox="0 0 570 575" fill="none" xmlns="http://www.w3.org/2000/svg">
<rect width="570" height="575" rx="1" fill="white"/>
<path fill-rule="evenodd" clip-rule="evenodd" d="M534.162 241.217C541.851 281.666 540.19 323.402 529.313 363.073L434.009 335.537C438.364 320.978 440.704 305.543 440.704 289.558C440.704 201.537 369.752 130.183 282.229 130.183C194.705 130.183 123.753 201.537 123.753 289.558C123.753 308.167 126.925 326.032 132.754 342.634L38.6223 374.721C25.9708 335.609 22.4325 293.997 28.2915 253.226C34.1506 212.456 49.2437 173.664 72.3583 139.969C95.4728 106.274 125.964 78.6136 161.383 59.2114C196.801 39.8092 236.159 29.2057 276.294 28.253C316.429 27.3002 356.223 36.0247 392.477 53.7255C428.731 71.4263 460.436 97.6098 485.043 130.172C509.65 162.735 526.474 200.769 534.162 241.217Z" fill="#F0B24B"/>
<path fill-rule="evenodd" clip-rule="evenodd" d="M433.911 335.162C414.185 399.56 353.738 446.437 282.228 446.437C211.537 446.437 151.657 400.627 131.239 337.367L36.3342 366.081C52.2693 419.834 85.0326 466.914 129.706 500.256C174.379 533.597 228.552 551.401 284.092 550.993C339.632 550.586 393.543 531.99 437.733 497.997C481.922 464.003 514.005 416.447 529.166 362.467L433.911 335.162Z" fill="#4CB398"/>
<path d="M124.45 409.272L37.792 364.601L128.412 311.859L124.45 409.272Z" fill="#F0B24B"/>
<path d="M446.142 410.139L437.103 315.591L529.473 364.565L446.142 410.139Z" fill="#F0B24B"/>
<path d="M442 288.5C442 375.459 370.84 446 283 446C195.16 446 124 375.459 124 288.5C124 201.541 195.16 131 283 131C370.84 131 442 201.541 442 288.5Z" fill="#FCD38F" stroke="#1C664F" stroke-width="6"/>
<path d="M536 287.5C536 431.436 421.992 548 281.5 548C141.008 548 27 431.436 27 287.5C27 143.564 141.008 27 281.5 27C421.992 27 536 143.564 536 287.5Z" stroke="#1C664F" stroke-width="6"/>
<g filter="url(#filter0_d_1_2)">
<ellipse rx="19.0696" ry="51.7093" transform="matrix(-0.98432 -0.176394 -0.176394 0.98432 488.478 308.482)" fill="#FCD38F"/>
<path d="M491.366 265.569L485.291 264.465C485.067 264.424 485.01 264.13 485.202 264.008L489.796 261.1C489.849 261.067 489.913 261.054 489.975 261.065L492.114 261.454L494.349 261.86M491.366 265.569L500.305 267.194M491.366 265.569L494.349 261.86M498.819 262.673L503.192 263.468C503.254 263.479 503.309 263.513 503.347 263.563L506.624 267.902C506.761 268.084 506.604 268.339 506.38 268.299L500.305 267.194M498.819 262.673L500.305 267.194M498.819 262.673L494.349 261.86M498.819 262.673L497.821 256.775C497.782 256.544 497.476 256.489 497.358 256.691L494.349 261.86" stroke="#D68438" stroke-width="0.2"/>
<path d="M490.635 269.789L490.718 269.804L490.747 269.725C491.246 268.345 491.738 267.04 492.216 265.825L495.818 266.48L499.758 267.197L504.661 268.088C504.698 268.095 504.732 268.115 504.754 268.145L508.031 272.484C508.113 272.593 508.019 272.746 507.885 272.722L499.913 271.273L499.795 271.251L499.796 271.372C499.806 272.673 499.79 274.091 499.741 275.609L499.738 275.695L499.823 275.71L507.585 277.121C507.639 277.131 507.683 277.17 507.7 277.222L509.01 281.203C509.045 281.311 508.952 281.418 508.84 281.398L499.648 279.726L499.538 279.706L499.53 279.818C499.44 281.163 499.325 282.561 499.181 284.003L499.172 284.094L499.263 284.111L508.324 285.758C508.378 285.768 508.422 285.806 508.439 285.859L509.748 289.84C509.784 289.948 509.691 290.054 509.579 290.034L498.818 288.078L498.715 288.059L498.701 288.163C498.523 289.517 498.32 290.899 498.09 292.3L498.074 292.397L498.171 292.415L508.963 294.376C509.044 294.391 509.098 294.469 509.083 294.551L508.425 298.174C508.41 298.255 508.332 298.309 508.25 298.295L497.46 296.333L497.364 296.316L497.344 296.412C497.076 297.764 496.781 299.128 496.457 300.498L496.433 300.601L496.537 300.62L502.829 301.764C502.941 301.784 502.991 301.916 502.919 302.005L500.293 305.271C500.258 305.313 500.203 305.334 500.149 305.324L495.533 304.485L495.443 304.469L495.418 304.557C495.047 305.901 494.646 307.246 494.215 308.585L494.18 308.693L494.292 308.714L497.029 309.211C497.066 309.218 497.082 309.262 497.059 309.292L494.327 312.688C494.292 312.731 494.237 312.752 494.183 312.742L492.94 312.516L492.858 312.501L492.829 312.579C492.341 313.886 491.821 315.182 491.268 316.463L480.23 314.456L478.893 310.391C478.858 310.283 478.951 310.176 479.063 310.196L480.052 310.376L480.166 310.397L480.17 310.281C480.213 308.977 480.311 307.575 480.466 306.091L480.475 305.999L480.384 305.982L475.11 305.023C475.056 305.014 475.011 304.975 474.994 304.923L473.685 300.942C473.649 300.834 473.742 300.727 473.854 300.747L480.893 302.027L480.994 302.045L481.01 301.944C481.218 300.616 481.464 299.243 481.747 297.831L481.767 297.731L481.667 297.713L472.236 295.999C472.154 295.984 472.1 295.906 472.115 295.824L472.773 292.201C472.788 292.12 472.866 292.066 472.948 292.08L482.534 293.823L482.627 293.84L482.649 293.748C482.969 292.418 483.319 291.064 483.701 289.692L483.73 289.586L483.623 289.567L473.732 287.769C473.65 287.754 473.596 287.676 473.611 287.594L474.27 283.971C474.284 283.89 474.362 283.835 474.444 283.85L484.783 285.73L484.87 285.746L484.897 285.662C485.315 284.335 485.761 282.999 486.234 281.657L486.273 281.546L486.158 281.525L477.463 279.945C477.381 279.93 477.327 279.852 477.342 279.77L478.001 276.147C478.015 276.066 478.093 276.012 478.175 276.026L487.605 277.741L487.686 277.755L487.716 277.679C488.233 276.36 488.777 275.042 489.348 273.728L489.399 273.612L489.275 273.59L481.361 272.151C481.249 272.131 481.2 271.998 481.271 271.91L483.898 268.644C483.932 268.601 483.987 268.581 484.041 268.591L490.635 269.789Z" stroke="#D68438" stroke-width="0.2"/>
<path d="M470.855 297.435C476.909 273.229 486.885 255.712 497.291 257.604C506.804 259.333 510.498 276.159 509.139 298.017" stroke="#D68438"/>
<path d="M481.839 320.519L480.263 314.93C480.213 314.752 480.366 314.583 480.548 314.616L493.17 316.91C493.352 316.943 493.436 317.156 493.326 317.304L489.884 321.981M481.839 320.519L487.202 321.494L489.884 321.981M481.839 320.519L483.481 326.343C483.507 326.435 483.583 326.504 483.677 326.521L488.733 327.44C488.827 327.457 488.923 327.419 488.979 327.342L492.329 322.791C492.438 322.642 492.354 322.43 492.172 322.397L489.884 321.981M481.839 320.519L485.099 332.082C485.149 332.26 484.995 332.429 484.814 332.396L482.526 331.98" stroke="#D68438" stroke-width="0.2"/>
<path d="M453.695 307.688C455.481 297.862 460.335 293.387 462.539 292.377C468.44 295.372 481.695 303.528 483.867 332.223C486.58 325.108 487.656 320.589 491.689 314.594C495.808 304.637 505.051 299.025 508.853 296.38C511.496 294.542 510.057 295.09 516.305 293.484C521.149 292.239 526.32 314.599 524.459 312.136C522.598 309.672 514.041 293.238 502.839 329.461C493.877 358.44 482.946 362.687 478.601 361.189C474.97 362.644 461.125 355.721 465.248 320.337C469.372 284.952 451.462 319.97 453.695 307.688Z" fill="#36846C"/>
<path d="M478.601 361.189C474.97 362.644 461.125 355.721 465.248 320.337C469.372 284.952 451.462 319.97 453.695 307.688C455.481 297.862 460.335 293.387 462.539 292.377C468.44 295.372 481.695 303.528 483.867 332.223M478.601 361.189C482.946 362.687 493.877 358.44 502.839 329.461C514.041 293.238 522.598 309.672 524.459 312.136C526.32 314.599 521.149 292.239 516.305 293.484C510.057 295.09 511.496 294.542 508.853 296.38C505.051 299.025 495.808 304.637 491.689 314.594C487.656 320.589 486.58 325.108 483.867 332.223M478.601 361.189C478.517 352.389 481.152 339.341 483.867 332.223" stroke="#327762" stroke-opacity="0.89" stroke-width="0.4"/>
<g style="mix-blend-mode:luminosity">
<path d="M504.969 316.949C496.709 349.205 488.451 358.208 479.524 358.938C479.315 358.955 479.188 358.72 479.311 358.551L491.299 342.094C491.307 342.084 491.313 342.073 491.319 342.062L504.516 316.759C504.653 316.497 505.042 316.662 504.969 316.949Z" fill="#4CB398" fill-opacity="0.37"/>
</g>
</g>
<g filter="url(#filter1_d_1_2)">
<ellipse cx="80.5307" cy="315.237" rx="18.9933" ry="50.8548" transform="rotate(-7.00217 80.5307 315.237)" fill="#FCD38F"/>
<path d="M80.1246 273.525L86.2643 272.871C86.4908 272.847 86.5697 272.557 86.3867 272.422L82.019 269.183C81.9686 269.146 81.906 269.129 81.8436 269.136L79.6817 269.366L77.4227 269.606M80.1246 273.525L71.0889 274.487M80.1246 273.525L77.4227 269.606M72.9049 270.088L68.484 270.558C68.4216 270.565 68.364 270.595 68.3226 270.642L64.7348 274.727C64.5845 274.899 64.7227 275.165 64.9491 275.141L71.0889 274.487M72.9049 270.088L71.0889 274.487M72.9049 270.088L77.4227 269.606M72.9049 270.088L74.3345 264.279C74.3903 264.052 74.6995 264.019 74.8019 264.229L77.4227 269.606" stroke="#D68438" stroke-width="0.2"/>
<path d="M80.5426 277.787L80.4586 277.796L80.4357 277.715C80.0393 276.302 79.645 274.964 79.2582 273.718L75.6174 274.105L71.6348 274.53L66.6787 275.057C66.6412 275.061 66.6067 275.079 66.5818 275.108L62.994 279.193C62.9038 279.296 62.9867 279.456 63.1226 279.441L71.1794 278.583L71.2996 278.57L71.2897 278.691C71.1831 279.987 71.0947 281.403 71.0321 282.92L71.0286 283.006L70.9428 283.016L63.0975 283.851C63.0428 283.857 62.9957 283.892 62.9747 283.943L61.3758 287.817C61.3324 287.922 61.4172 288.035 61.5303 288.023L70.8216 287.034L70.933 287.022L70.9322 287.134C70.9231 288.482 70.9349 289.885 70.9716 291.332L70.974 291.425L70.8822 291.434L61.7244 292.41C61.6697 292.416 61.6226 292.451 61.6016 292.502L60.0027 296.375C59.9593 296.48 60.0441 296.594 60.1572 296.582L71.0335 295.423L71.1379 295.412L71.1439 295.517C71.2216 296.881 71.3223 298.273 71.4486 299.688L71.4574 299.786L71.3596 299.796L60.452 300.958C60.3696 300.966 60.3099 301.04 60.3187 301.123L60.7087 304.784C60.7174 304.867 60.7913 304.927 60.8737 304.918L71.7796 303.756L71.8774 303.746L71.8895 303.844C72.058 305.212 72.2518 306.594 72.4733 307.984L72.4899 308.088L72.3852 308.099L66.025 308.776C65.9119 308.789 65.8528 308.917 65.9174 309.011L68.2962 312.461C68.3274 312.506 68.3809 312.531 68.4356 312.525L73.1017 312.028L73.1925 312.018L73.2103 312.108C73.4822 313.476 73.7827 314.846 74.1141 316.214L74.141 316.325L74.0275 316.337L71.2615 316.631C71.2238 316.635 71.2041 316.678 71.2256 316.709L73.6999 320.298C73.7311 320.343 73.7846 320.368 73.8393 320.362L75.0958 320.228L75.1789 320.219L75.2024 320.299C75.5927 321.639 76.0153 322.97 76.4723 324.288L87.6288 323.099L89.2618 319.143C89.3052 319.038 89.2203 318.925 89.1072 318.937L88.1075 319.043L87.9923 319.056L87.997 318.94C88.05 317.636 88.055 316.231 88.0105 314.739L88.0077 314.647L88.0998 314.637L93.431 314.069C93.4857 314.063 93.5328 314.028 93.5538 313.977L95.1527 310.104C95.1961 309.998 95.1113 309.885 94.9982 309.897L87.8834 310.655L87.7815 310.666L87.7732 310.564C87.6635 309.224 87.5197 307.836 87.3411 306.408L87.3285 306.307L87.4297 306.296L96.9624 305.281C97.0448 305.272 97.1044 305.198 97.0956 305.116L96.7057 301.454C96.6969 301.371 96.623 301.312 96.5406 301.321L86.8517 302.352L86.7577 302.362L86.7424 302.269C86.5214 300.919 86.2713 299.543 85.9918 298.146L85.9703 298.039L86.0793 298.027L96.0766 296.963C96.1589 296.954 96.2186 296.88 96.2098 296.798L95.8199 293.136C95.8111 293.053 95.7372 292.994 95.6548 293.003L85.2042 294.115L85.1165 294.125L85.0963 294.039C84.7771 292.686 84.4309 291.32 84.0574 289.947L84.0266 289.834L84.1433 289.821L92.9318 288.885C93.0142 288.876 93.0738 288.803 93.0651 288.72L92.6751 285.058C92.6663 284.976 92.5925 284.916 92.5101 284.925L82.9787 285.94L82.8969 285.949L82.8726 285.87C82.4537 284.517 82.0082 283.162 81.5356 281.81L81.4939 281.691L81.6194 281.678L89.6177 280.826C89.7308 280.814 89.7899 280.685 89.7253 280.591L87.3465 277.141C87.3153 277.096 87.2618 277.072 87.2071 277.077L80.5426 277.787Z" stroke="#D68438" stroke-width="0.2"/>
<path d="M98.4079 306.717C94.1425 281.871 85.5319 263.463 75.1226 264.571C65.6068 265.585 60.7689 282.25 60.564 304.372" stroke="#D68438"/>
<path d="M85.5783 329.027L87.5617 323.569C87.6248 323.395 87.4841 323.215 87.3002 323.235L74.5431 324.594C74.3593 324.613 74.2595 324.819 74.3578 324.975L77.4461 329.893M85.5783 329.027L80.1568 329.604L77.4461 329.893M85.5783 329.027L83.5114 334.714C83.4788 334.804 83.3979 334.867 83.3029 334.877L78.1919 335.421C78.0969 335.432 78.0045 335.387 77.9537 335.306L74.9484 330.52C74.8501 330.364 74.9498 330.158 75.1336 330.139L77.4461 329.893M85.5783 329.027L81.4747 340.318C81.4116 340.492 81.5523 340.672 81.7362 340.652L84.0487 340.406" stroke="#D68438" stroke-width="0.2"/>
<path d="M114.593 318.303C113.535 308.372 109.024 303.552 106.9 302.383C100.794 304.936 86.9734 312.092 82.6934 340.55C80.5113 333.254 79.7706 328.669 76.1906 322.393C72.8162 312.159 64.0111 305.881 60.4143 302.964C57.9137 300.936 59.3081 301.589 53.1945 299.527C48.4552 297.928 41.6512 319.847 43.6887 317.527C45.7262 315.207 55.4707 299.448 63.9747 336.398C70.778 365.958 81.3669 370.999 85.8109 369.825C89.3255 371.543 103.644 365.66 102.138 330.067C100.632 294.475 115.914 330.717 114.593 318.303Z" fill="#36846C"/>
<path d="M85.8109 369.825C89.3255 371.543 103.644 365.66 102.138 330.067C100.632 294.475 115.914 330.717 114.593 318.303C113.535 308.372 109.024 303.552 106.9 302.383C100.794 304.936 86.9734 312.092 82.6934 340.55M85.8109 369.825C81.3669 370.999 70.778 365.958 63.9747 336.398C55.4707 299.448 45.7262 315.207 43.6887 317.527C41.6512 319.847 48.4552 297.928 53.1945 299.527C59.3081 301.589 57.9137 300.936 60.4142 302.964C64.0111 305.881 72.8162 312.159 76.1906 322.393C79.7706 328.669 80.5113 333.254 82.6934 340.55M85.8109 369.825C86.5432 361.055 84.876 347.848 82.6934 340.55" stroke="#327762" stroke-opacity="0.89" stroke-width="0.4"/>
<g style="mix-blend-mode:luminosity">
<path d="M62.7724 323.763C68.6345 356.54 76.2067 366.126 85.0563 367.512C85.2635 367.545 85.4082 367.32 85.2975 367.141L74.5534 349.846C74.5469 349.836 74.5411 349.825 74.5362 349.814L63.2383 323.607C63.1211 323.335 62.7203 323.472 62.7724 323.763Z" fill="#4CB398" fill-opacity="0.37"/>
</g>
</g>
<path d="M256.864 163.153C248.274 175.797 243.925 194.539 243.49 202.899H328.625C328.625 194.168 321.885 173.517 314.79 163.153C307.696 152.789 293.507 140 285.242 140C276.977 140 267.257 147.854 256.864 163.153Z" fill="#1C664F" stroke="#1C664F" stroke-width="7" stroke-linejoin="bevel"/>
<path d="M408.977 220.455C408.691 225.493 405.8 229.817 400.204 233.6C394.251 237.625 385.445 240.874 374.204 243.48C351.747 248.685 320.286 251.17 284.398 252.654C250.868 254.04 220.314 250.716 197.211 245.066C185.654 242.239 176.018 238.844 168.824 235.2C161.539 231.509 157.094 227.728 155.423 224.314C155.066 223.585 154.964 222.969 155.01 222.431C155.057 221.89 155.263 221.302 155.717 220.651C156.663 219.294 158.574 217.822 161.64 216.341C167.729 213.401 177.449 210.855 189.823 208.784C214.503 204.652 249.066 202.511 284.481 202.511C320.381 202.511 348.15 203.607 368.782 206.522C388.915 209.367 401.842 213.897 408.977 220.455Z" fill="#1C664F" stroke="#1C664F" stroke-width="4"/>
<path d="M165.432 224.397L164.492 227.768L168.692 225.67L165.432 224.397ZM169.786 213.25L171.907 210.466L166.526 211.977L169.786 213.25ZM180.386 221.326L178.265 224.11L183.665 222.549L180.386 221.326ZM184.715 209.724L187.298 207.362L181.436 208.5L184.715 209.724ZM193.766 219.62L191.183 221.982L196.818 221.332L193.766 219.62ZM200.85 206.994L203.509 204.719L197.797 205.282L200.85 206.994ZM209.901 217.572L207.241 219.848L212.787 219.552L209.901 217.572ZM218.558 204.947L221.403 202.908L215.672 202.967L218.558 204.947ZM227.609 217.572L224.765 219.611L230.629 219.342L227.609 217.572ZM235.607 203.923L238.336 201.732L232.588 202.154L235.607 203.923ZM244.925 215.525L242.196 217.716L247.803 217.516L244.925 215.525ZM252.95 203.923L255.637 201.68L250.071 201.932L252.95 203.923ZM262.633 215.525L259.946 217.768L265.374 217.701L262.633 215.525ZM272.657 202.899L275.437 200.774L269.915 200.723L272.657 202.899ZM282.31 215.525L279.529 217.651L284.988 217.778L282.31 215.525ZM292.935 202.899L295.696 200.748L290.257 200.646L292.935 202.899ZM302.773 215.525L300.012 217.676L305.492 217.728L302.773 215.525ZM313.005 202.899L315.975 201.048L310.286 200.696L313.005 202.899ZM320.875 215.525L317.905 217.376L323.691 217.604L320.875 215.525ZM330.201 202.899L333.24 201.163L327.386 200.82L330.201 202.899ZM338.584 217.572L335.545 219.308L341.359 219.705L338.584 217.572ZM348.331 204.89L351.418 203.24L345.556 202.757L348.331 204.89ZM355.112 217.572L352.026 219.222L357.731 219.894L355.112 217.572ZM364.491 206.994L367.577 205.343L361.872 204.672L364.491 206.994ZM371.247 219.62L368.161 221.271L373.741 222.075L371.247 219.62ZM381.045 209.667L384.285 208.344L378.551 207.212L381.045 209.667ZM385.807 221.326L382.567 222.649L387.978 224.071L385.807 221.326ZM396.022 213.25L399.283 211.979L393.852 210.504L396.022 213.25ZM400.368 224.397L397.107 225.668L402.757 226.954L400.368 224.397ZM407.871 222.177L410.429 219.788L405.65 214.673L403.093 217.062L407.871 222.177ZM153.475 224.697L164.492 227.768L166.372 221.025L155.354 217.954L153.475 224.697ZM168.692 225.67L173.046 214.523L166.526 211.977L162.172 223.123L168.692 225.67ZM167.665 216.034L178.265 224.11L182.507 218.542L171.907 210.466L167.665 216.034ZM183.665 222.549L187.994 210.948L181.436 208.5L177.107 220.102L183.665 222.549ZM182.132 212.086L191.183 221.982L196.349 217.257L187.298 207.362L182.132 212.086ZM196.818 221.332L203.902 208.707L197.797 205.282L190.714 217.907L196.818 221.332ZM198.19 209.27L207.241 219.848L212.56 215.297L203.509 204.719L198.19 209.27ZM212.787 219.552L221.445 206.926L215.672 202.967L207.014 215.593L212.787 219.552ZM215.714 206.986L224.765 219.611L230.454 215.533L221.403 202.908L215.714 206.986ZM230.629 219.342L238.627 205.693L232.588 202.154L224.59 215.803L230.629 219.342ZM232.878 206.115L242.196 217.716L247.653 213.333L238.336 201.732L232.878 206.115ZM247.803 217.516L255.828 205.914L250.071 201.932L242.046 213.534L247.803 217.516ZM250.263 206.166L259.946 217.768L265.32 213.282L255.637 201.68L250.263 206.166ZM265.374 217.701L275.398 205.076L269.915 200.723L259.892 213.349L265.374 217.701ZM269.876 205.025L279.529 217.651L285.09 213.399L275.437 200.774L269.876 205.025ZM284.988 217.778L295.613 205.153L290.257 200.646L279.632 213.271L284.988 217.778ZM290.174 205.051L300.012 217.676L305.534 213.374L295.696 200.748L290.174 205.051ZM305.492 217.728L315.724 205.103L310.286 200.696L300.054 213.321L305.492 217.728ZM310.035 204.751L317.905 217.376L323.845 213.673L315.975 201.048L310.035 204.751ZM323.691 217.604L333.016 204.979L327.386 200.82L318.06 213.445L323.691 217.604ZM327.162 204.636L335.545 219.308L341.623 215.836L333.24 201.163L327.162 204.636ZM341.359 219.705L351.107 207.023L345.556 202.757L335.809 215.439L341.359 219.705ZM345.245 206.54L352.026 219.222L358.199 215.922L351.418 203.24L345.245 206.54ZM357.731 219.894L367.11 209.316L361.872 204.672L352.493 215.25L357.731 219.894ZM361.405 208.645L368.161 221.271L374.333 217.968L367.577 205.343L361.405 208.645ZM373.741 222.075L383.539 212.123L378.551 207.212L368.753 217.164L373.741 222.075ZM377.805 210.991L382.567 222.649L389.047 220.002L384.285 208.344L377.805 210.991ZM387.978 224.071L398.193 215.996L393.852 210.504L383.637 218.58L387.978 224.071ZM392.761 214.521L397.107 225.668L403.629 223.126L399.283 211.979L392.761 214.521ZM402.757 226.954L407.871 222.177L403.093 217.062L397.979 221.839L402.757 226.954Z" fill="#4CB398"/>
<path d="M275.81 285.306C279.278 284.987 283.693 288.889 286.057 290.083C292.364 285.306 295.461 285.559 297.488 286.102C316.8 291.277 321.53 322.727 316.8 316.755C305.666 302.698 295.113 295.995 284.481 296.452C265.956 297.249 253.182 323.125 253.738 315.959C255.345 295.258 271.474 285.704 275.81 285.306Z" fill="#D68438"/>
<path d="M245.067 278.538C242.86 278.857 239.943 267.391 239.943 260.226C239.943 257.418 242.245 252.709 245.461 257.041C246.644 258.633 244.41 265.932 245.067 267.391C246.118 270.974 247.826 278.14 245.067 278.538Z" fill="#D68438"/>
<path d="M320.589 278.936C322.542 279.791 325.472 267.084 325.472 259.725C325.472 256.842 323.279 252.005 320.214 256.454C319.087 258.089 321.156 264.912 320.589 266.993C319.289 271.77 318.771 278.14 320.589 278.936Z" fill="#D68438"/>
<rect width="15.3115" height="41.1266" rx="5" transform="matrix(0.525675 -0.850685 0.845933 0.533289 245.229 336.946)" fill="#1C664F"/>
<rect width="14.2776" height="40.4965" rx="5" transform="matrix(0.6124 0.790548 -0.784572 0.620038 321.145 319.94)" fill="#1C664F"/>
<rect width="16.8902" height="38.0285" rx="4" transform="matrix(0.711803 -0.702379 0.695234 0.718783 329 349.863)" fill="#D68438"/>
<rect width="11.4867" height="33.6085" rx="4" transform="matrix(0.760601 -0.64922 0.641695 0.766959 313 365.457)" fill="#D68438"/>
<rect width="10.366" height="32.259" rx="4" transform="matrix(0.797822 -0.602893 0.595218 0.803564 300 377.25)" fill="#D68438"/>
<rect width="7.79241" height="32.2373" rx="3.89621" transform="matrix(0.877921 -0.478806 0.471455 0.88189 286 386.731)" fill="#D68438"/>
<rect width="8.81893" height="32.6733" rx="4" transform="matrix(0.912171 -0.409809 0.40303 0.915187 269 394.614)" fill="#D68438"/>
<rect width="9.57014" height="32.8199" rx="4" transform="matrix(0.958612 -0.284716 0.279527 0.960138 251 401.725)" fill="#D68438"/>
<path d="M87.4671 187.991L85.1938 199.578L124.329 205.626L122.181 216.577L83.0452 210.529L80.758 222.187L71.9348 220.823L78.6439 186.627L87.4671 187.991Z" fill="white"/>
<path d="M133.565 136.191C140.252 139.451 144.543 143.935 146.437 149.643C148.313 155.289 147.391 161.166 143.669 167.274C139.923 173.422 134.889 177.321 128.567 178.971C122.245 180.621 115.718 179.806 108.988 176.525C102.3 173.265 98.018 168.811 96.142 163.165C94.2478 157.457 95.1615 151.549 98.883 145.442C102.63 139.293 107.664 135.394 113.986 133.744C120.307 132.094 126.834 132.91 133.565 136.191ZM107.11 158.942C108.384 161.902 111.07 164.382 115.169 166.38C119.268 168.378 123.075 169.064 126.59 168.438C130.063 167.791 132.735 165.931 134.608 162.857C136.482 159.783 136.781 156.765 135.507 153.805C134.19 150.824 131.482 148.334 127.383 146.336C123.284 144.338 119.498 143.662 116.026 144.309C112.511 144.934 109.817 146.784 107.944 149.859C106.071 152.933 105.793 155.961 107.11 158.942Z" fill="white"/>
<path d="M150.548 104.273L146.279 107.696L155.937 117.385L160.038 114.097C163.782 111.095 163.994 107.927 160.673 104.596C159.216 103.134 157.594 102.386 155.807 102.35C153.987 102.281 152.234 102.922 150.548 104.273ZM174.185 135.692L165.534 142.628L131.275 108.258L144.363 97.7641C148.595 94.371 153.001 92.6735 157.58 92.6714C162.197 92.6393 166.133 94.255 169.386 97.5186C174.265 102.414 175.334 107.643 172.592 113.206L195.362 118.712L185.026 126.999L164.931 121.642L162.291 123.759L174.185 135.692Z" fill="white"/>
<path d="M217.183 69.4125L206.272 73.9265L224.306 109.182L213.994 113.448L195.959 78.1927L184.982 82.7341L180.916 74.7857L213.117 61.4641L217.183 69.4125Z" fill="white"/>
<path d="M257.943 101.79L247.045 103.839L236.166 56.5462L247.063 54.4975L257.943 101.79Z" fill="white"/>
<path d="M301.252 100.389L272.237 100.215L272.794 51.6903L283.882 51.7567L283.436 90.5621L301.364 90.6695L301.252 100.389Z" fill="white"/>
<path d="M340.272 108.278L312.074 101.433L326.264 55.0264L337.039 57.6422L325.692 94.754L343.114 98.9833L340.272 108.278Z" fill="white"/>
<path d="M377.833 124.943L351.195 110.783L378.038 70.355L404.422 84.3799L399.523 91.7577L382.994 82.971L376.9 92.1483L391.65 99.9887L386.791 107.306L372.041 99.4661L365.948 108.643L382.732 117.565L377.833 124.943Z" fill="white"/>
<path d="M432.88 117.784L428.99 113.935L418.375 122.565L422.112 126.261C425.524 129.637 429.055 129.841 432.705 126.874C434.307 125.572 435.111 124.119 435.117 122.514C435.161 120.88 434.416 119.303 432.88 117.784ZM398.319 138.87L390.437 131.072L428.091 100.46L440.017 112.258C443.873 116.073 445.844 120.037 445.929 124.149C446.049 128.295 444.321 131.821 440.746 134.728C435.382 139.088 429.578 140.025 423.332 137.538L417.615 157.961L408.198 148.643L413.798 130.622L411.392 128.242L398.319 138.87Z" fill="white"/>
<path d="M428.889 175.187L423.184 165.68L466.854 144.516L472.559 154.023L428.889 175.187Z" fill="white"/>
<path d="M460.993 197.241L459.174 197.122L462.189 208.39L463.747 207.535C467.983 205.187 471.601 203.22 474.602 201.633C477.614 200.093 479.565 199.128 480.453 198.738L481.785 198.152C479.107 198.344 472.176 198.04 460.993 197.241ZM439.292 195.718L436.295 184.52L487.896 189.826L491.507 203.319L448.282 229.312L445.211 217.836L454.155 212.866L449.762 196.452L439.292 195.718Z" fill="white"/>
<path d="M184.59 497.765L152.044 482.211L155.552 474.871L188.737 455.857L169.508 446.668L173.357 438.612L204.735 453.607L201.351 460.688L167.911 479.899L188.44 489.709L184.59 497.765Z" fill="white"/>
<path d="M214.927 485.931L213.991 487.469L225.255 490.5L225.217 488.701C225.096 483.797 225.025 479.627 225.005 476.192C225.032 472.769 225.077 470.569 225.141 469.592L225.237 468.127C224.18 470.576 220.744 476.511 214.927 485.931ZM203.665 504.225L192.472 501.211L220.729 458.562L234.217 462.193L237.246 513.264L225.774 510.176L225.506 499.814L209.098 495.397L203.665 504.225Z" fill="white"/>
<path d="M264.294 500.036L258.699 499.548L257.335 515.184L246.289 514.22L250.508 465.876L267.149 467.329C272.505 467.796 276.701 469.68 279.737 472.981C282.822 476.285 284.161 480.257 283.757 484.895C283.293 490.203 281.189 494.163 277.444 496.775C273.746 499.392 269.363 500.479 264.294 500.036ZM265.088 476.038L260.784 475.663L259.463 490.797L263.121 491.116C268.955 491.626 272.104 489.226 272.567 483.919C272.984 479.137 270.491 476.51 265.088 476.038Z" fill="white"/>
<path d="M302.377 495.543L302.029 497.309L313.647 496.274L312.991 494.598C311.188 490.036 309.685 486.146 308.483 482.928C307.328 479.705 306.613 477.625 306.337 476.685L305.922 475.277C305.774 477.94 304.592 484.696 302.377 495.543ZM298.108 516.597L286.562 517.625L298.394 467.851L312.307 466.612L332.747 513.512L320.914 514.566L317.092 504.931L300.167 506.438L298.108 516.597Z" fill="white"/>
<path d="M362.508 464.619L351.105 467.689L361.399 505.928L350.622 508.828L340.329 470.59L328.857 473.677L326.537 465.056L360.187 455.998L362.508 464.619Z" fill="white"/>
<path d="M386.984 474.79L387.259 476.568L397.826 471.631L396.638 470.279C393.386 466.606 390.646 463.463 388.417 460.848C386.233 458.213 384.85 456.502 384.27 455.713L383.399 454.53C384.169 457.085 385.364 463.838 386.984 474.79ZM390.156 496.036L379.654 500.943L373.789 450.12L386.444 444.207L421.663 481.316L410.899 486.344L404.019 478.592L388.624 485.785L390.156 496.036Z" fill="white"/>
<defs>
<filter id="filter0_d_1_2" x="449.302" y="252.466" width="79.7455" height="113.184" filterUnits="userSpaceOnUse" color-interpolation-filters="sRGB">
<feFlood flood-opacity="0" result="BackgroundImageFix"/>
<feColorMatrix in="SourceAlpha" type="matrix" values="0 0 0 0 0 0 0 0 0 0 0 0 0 0 0 0 0 0 127 0" result="hardAlpha"/>
<feOffset/>
<feGaussianBlur stdDeviation="2"/>
<feComposite in2="hardAlpha" operator="out"/>
<feColorMatrix type="matrix" values="0 0 0 0 0 0 0 0 0 0 0 0 0 0 0 0 0 0 0.5 0"/>
<feBlend mode="normal" in2="BackgroundImageFix" result="effect1_dropShadow_1_2"/>
<feBlend mode="normal" in="SourceGraphic" in2="effect1_dropShadow_1_2" result="shape"/>
</filter>
<filter id="filter1_d_1_2" x="39.1178" y="259.989" width="79.7559" height="114.302" filterUnits="userSpaceOnUse" color-interpolation-filters="sRGB">
<feFlood flood-opacity="0" result="BackgroundImageFix"/>
<feColorMatrix in="SourceAlpha" type="matrix" values="0 0 0 0 0 0 0 0 0 0 0 0 0 0 0 0 0 0 127 0" result="hardAlpha"/>
<feOffset/>
<feGaussianBlur stdDeviation="2"/>
<feComposite in2="hardAlpha" operator="out"/>
<feColorMatrix type="matrix" values="0 0 0 0 0 0 0 0 0 0 0 0 0 0 0 0 0 0 0.5 0"/>
<feBlend mode="normal" in2="BackgroundImageFix" result="effect1_dropShadow_1_2"/>
<feBlend mode="normal" in="SourceGraphic" in2="effect1_dropShadow_1_2" result="shape"/>
</filter>
</defs>
</svg>
